<svg xmlns="http://www.w3.org/2000/svg" xmlns:xlink="http://www.w3.org/1999/xlink" width="500" zoomAndPan="magnify" viewBox="0 0 375 374.999991" height="500" preserveAspectRatio="xMidYMid meet" version="1.0"><defs><g/><clipPath id="385d825e1e"><path d="M 148.511719 66.171875 L 211.214844 66.171875 L 211.214844 98.570312 L 148.511719 98.570312 Z M 148.511719 66.171875 " clip-rule="nonzero"/></clipPath><clipPath id="136dcc8fda"><path d="M 139 168 L 233 168 L 233 288 L 139 288 Z M 139 168 " clip-rule="nonzero"/></clipPath><clipPath id="047231bf67"><path d="M 139.214844 268.617188 L 202.855469 168.1875 L 232.960938 187.265625 L 169.320312 287.695312 Z M 139.214844 268.617188 " clip-rule="nonzero"/></clipPath><clipPath id="eb07469892"><path d="M 139.214844 268.617188 L 202.851562 168.191406 L 232.957031 187.269531 L 169.320312 287.695312 Z M 139.214844 268.617188 " clip-rule="nonzero"/></clipPath></defs><rect x="-37.5" width="450" fill="#ffffff" y="-37.499999" height="449.999989" fill-opacity="1"/><rect x="-37.5" width="450" fill="#000000" y="-37.499999" height="449.999989" fill-opacity="1"/><g fill="#f8f8f8" fill-opacity="1"><g transform="translate(75.809142, 259.790584)"><g><path d="M 72.28125 1.75 C 54.039062 1.75 39.648438 -2.597656 29.109375 -11.296875 C 18.566406 -19.992188 12.210938 -33.710938 10.046875 -52.453125 L 17.5625 -53.21875 C 20.582031 -35.976562 26.316406 -23.757812 34.765625 -16.5625 C 43.210938 -9.363281 55.890625 -5.765625 72.796875 -5.765625 C 86.847656 -5.765625 97.972656 -9.238281 106.171875 -16.1875 C 114.367188 -23.132812 118.46875 -32.460938 118.46875 -44.171875 C 118.46875 -52.535156 116.835938 -59.144531 113.578125 -64 C 110.316406 -68.851562 105.171875 -72.703125 98.140625 -75.546875 C 91.109375 -78.390625 81.988281 -80.898438 70.78125 -83.078125 C 61.40625 -84.921875 52.953125 -87.429688 45.421875 -90.609375 C 37.898438 -93.785156 31.921875 -98.59375 27.484375 -105.03125 C 23.046875 -111.476562 20.828125 -120.394531 20.828125 -131.78125 C 20.828125 -141.144531 23.046875 -149.507812 27.484375 -156.875 C 31.921875 -164.238281 38.03125 -170.050781 45.8125 -174.3125 C 53.59375 -178.582031 62.5 -180.71875 72.53125 -180.71875 C 86.925781 -180.71875 98.679688 -176.828125 107.796875 -169.046875 C 116.921875 -161.265625 122.488281 -149.675781 124.5 -134.28125 L 117.46875 -133.28125 C 115.289062 -147.164062 110.519531 -157.285156 103.15625 -163.640625 C 95.789062 -170.003906 85.582031 -173.1875 72.53125 -173.1875 C 59.3125 -173.1875 48.6875 -169.421875 40.65625 -161.890625 C 32.625 -154.359375 28.609375 -144.320312 28.609375 -131.78125 C 28.609375 -122.570312 30.363281 -115.25 33.875 -109.8125 C 37.394531 -104.375 42.414062 -100.234375 48.9375 -97.390625 C 55.46875 -94.546875 63.332031 -92.203125 72.53125 -90.359375 C 85.582031 -87.847656 96.039062 -84.789062 103.90625 -81.1875 C 111.78125 -77.59375 117.472656 -72.867188 120.984375 -67.015625 C 124.492188 -61.160156 126.25 -53.546875 126.25 -44.171875 C 126.25 -34.804688 123.988281 -26.691406 119.46875 -19.828125 C 114.957031 -12.960938 108.644531 -7.648438 100.53125 -3.890625 C 92.414062 -0.128906 83 1.75 72.28125 1.75 Z M 72.28125 1.75 "/></g></g></g><g clip-path="url(#385d825e1e)"><path fill="#000000" d="M 148.511719 98.570312 L 148.511719 66.171875 L 211.152344 66.171875 L 211.152344 98.570312 Z M 148.511719 98.570312 " fill-opacity="1" fill-rule="nonzero"/></g><g clip-path="url(#136dcc8fda)"><g clip-path="url(#047231bf67)"><g clip-path="url(#eb07469892)"><path fill="#000000" d="M 139.214844 268.617188 L 202.855469 168.1875 L 232.960938 187.265625 L 169.320312 287.695312 Z M 139.214844 268.617188 " fill-opacity="1" fill-rule="nonzero"/></g></g></g><g fill="#f8f8f8" fill-opacity="1"><g transform="translate(146.832314, 259.790584)"><g><path d="M 10.546875 0 L 10.546875 -5.515625 L 125.75 -171.6875 L 13.8125 -171.6875 L 13.8125 -178.203125 L 135.03125 -178.203125 L 135.03125 -172.6875 L 19.828125 -6.53125 L 138.046875 -6.53125 L 136.796875 0 Z M 10.546875 0 "/></g></g></g><g fill="#f8f8f8" fill-opacity="1"><g transform="translate(131.834079, 287.605676)"><g><path d="M 0.609375 0.484375 L 0.609375 0 L 6.96875 0 L 6.96875 0.484375 Z M 0.609375 0.484375 "/></g></g></g><g fill="#f8f8f8" fill-opacity="1"><g transform="translate(143.786642, 287.605676)"><g><path d="M 5.1875 0.125 C 3.875 0.125 2.835938 -0.1875 2.078125 -0.8125 C 1.328125 -1.4375 0.875 -2.421875 0.71875 -3.765625 L 1.265625 -3.8125 C 1.472656 -2.582031 1.878906 -1.707031 2.484375 -1.1875 C 3.097656 -0.664062 4.007812 -0.40625 5.21875 -0.40625 C 6.226562 -0.40625 7.023438 -0.65625 7.609375 -1.15625 C 8.203125 -1.65625 8.5 -2.328125 8.5 -3.171875 C 8.5 -3.765625 8.378906 -4.234375 8.140625 -4.578125 C 7.910156 -4.929688 7.539062 -5.207031 7.03125 -5.40625 C 6.53125 -5.613281 5.878906 -5.796875 5.078125 -5.953125 C 4.398438 -6.085938 3.789062 -6.269531 3.25 -6.5 C 2.71875 -6.726562 2.289062 -7.070312 1.96875 -7.53125 C 1.65625 -7.988281 1.5 -8.628906 1.5 -9.453125 C 1.5 -10.117188 1.65625 -10.71875 1.96875 -11.25 C 2.289062 -11.78125 2.726562 -12.195312 3.28125 -12.5 C 3.84375 -12.800781 4.484375 -12.953125 5.203125 -12.953125 C 6.234375 -12.953125 7.078125 -12.671875 7.734375 -12.109375 C 8.390625 -11.554688 8.785156 -10.726562 8.921875 -9.625 L 8.421875 -9.5625 C 8.265625 -10.550781 7.921875 -11.273438 7.390625 -11.734375 C 6.867188 -12.191406 6.140625 -12.421875 5.203125 -12.421875 C 4.253906 -12.421875 3.488281 -12.148438 2.90625 -11.609375 C 2.332031 -11.066406 2.046875 -10.347656 2.046875 -9.453125 C 2.046875 -8.785156 2.171875 -8.257812 2.421875 -7.875 C 2.679688 -7.488281 3.046875 -7.191406 3.515625 -6.984375 C 3.984375 -6.773438 4.546875 -6.609375 5.203125 -6.484375 C 6.140625 -6.296875 6.890625 -6.070312 7.453125 -5.8125 C 8.015625 -5.5625 8.421875 -5.222656 8.671875 -4.796875 C 8.921875 -4.378906 9.046875 -3.835938 9.046875 -3.171875 C 9.046875 -2.492188 8.882812 -1.910156 8.5625 -1.421875 C 8.238281 -0.929688 7.785156 -0.550781 7.203125 -0.28125 C 6.628906 -0.0078125 5.957031 0.125 5.1875 0.125 Z M 5.1875 0.125 "/></g></g></g><g fill="#f8f8f8" fill-opacity="1"><g transform="translate(158.025195, 287.605676)"><g><path d="M 0.71875 0 L 0.09375 0 L 4.65625 -6.5625 L 0.390625 -12.78125 L 1.03125 -12.78125 L 4.984375 -7.015625 L 9.03125 -12.78125 L 9.640625 -12.78125 L 5.296875 -6.5625 L 9.828125 0 L 9.1875 0 L 4.984375 -6.125 Z M 0.71875 0 "/></g></g></g><g fill="#f8f8f8" fill-opacity="1"><g transform="translate(172.281748, 287.605676)"><g><path d="M 1.625 0 L 1.625 -12.78125 L 2.171875 -12.78125 L 2.171875 -0.484375 L 8.390625 -0.484375 L 8.296875 0 Z M 1.625 0 "/></g></g></g><g fill="#f8f8f8" fill-opacity="1"><g transform="translate(184.900312, 287.605676)"><g><path d="M 8.296875 -12.3125 L 2.15625 -12.3125 L 2.15625 -6.75 L 8.25 -6.75 L 8.25 -6.28125 L 2.15625 -6.28125 L 2.15625 -0.46875 L 8.609375 -0.46875 L 8.515625 0 L 1.625 0 L 1.625 -12.78125 L 8.296875 -12.78125 Z M 8.296875 -12.3125 "/></g></g></g><g fill="#f8f8f8" fill-opacity="1"><g transform="translate(198.652871, 287.605676)"><g><path d="M 10.421875 -12.78125 L 10.9375 -12.78125 L 10.9375 0 L 10.53125 0 L 2.140625 -11.734375 L 2.140625 0 L 1.625 0 L 1.625 -12.78125 L 2.046875 -12.78125 L 10.421875 -1.046875 Z M 10.421875 -12.78125 "/></g></g></g><g fill="#f8f8f8" fill-opacity="1"><g transform="translate(215.591419, 287.605676)"><g><path d="M 8.296875 -12.3125 L 2.15625 -12.3125 L 2.15625 -6.75 L 8.25 -6.75 L 8.25 -6.28125 L 2.15625 -6.28125 L 2.15625 -0.46875 L 8.609375 -0.46875 L 8.515625 0 L 1.625 0 L 1.625 -12.78125 L 8.296875 -12.78125 Z M 8.296875 -12.3125 "/></g></g></g><g fill="#f8f8f8" fill-opacity="1"><g transform="translate(229.343972, 287.605676)"><g><path d="M 1.140625 0.125 C 0.992188 0.125 0.875 0.0703125 0.78125 -0.03125 C 0.6875 -0.132812 0.640625 -0.25 0.640625 -0.375 C 0.640625 -0.507812 0.6875 -0.625 0.78125 -0.71875 C 0.882812 -0.8125 1.003906 -0.859375 1.140625 -0.859375 C 1.273438 -0.859375 1.382812 -0.8125 1.46875 -0.71875 C 1.5625 -0.625 1.609375 -0.507812 1.609375 -0.375 C 1.609375 -0.25 1.5625 -0.132812 1.46875 -0.03125 C 1.382812 0.0703125 1.273438 0.125 1.140625 0.125 Z M 1.140625 0.125 "/></g></g></g><g fill="#f8f8f8" fill-opacity="1"><g transform="translate(235.968544, 287.605676)"><g><path d="M 0.75 0 L 0.75 -0.390625 L 9.015625 -12.3125 L 0.984375 -12.3125 L 0.984375 -12.78125 L 9.6875 -12.78125 L 9.6875 -12.390625 L 1.421875 -0.46875 L 9.90625 -0.46875 L 9.8125 0 Z M 0.75 0 "/></g></g></g></svg>